<?xml version="1.0" encoding="UTF-8" standalone="no"?>
<!-- Generator: Adobe Illustrator 16.0.0, SVG Export Plug-In . SVG Version: 6.00 Build 0)  -->

<svg
   xmlns:dc="http://purl.org/dc/elements/1.1/"
   xmlns:cc="http://creativecommons.org/ns#"
   xmlns:rdf="http://www.w3.org/1999/02/22-rdf-syntax-ns#"
   xmlns:svg="http://www.w3.org/2000/svg"
   xmlns="http://www.w3.org/2000/svg"
   xmlns:sodipodi="http://sodipodi.sourceforge.net/DTD/sodipodi-0.dtd"
   xmlns:inkscape="http://www.inkscape.org/namespaces/inkscape"
   version="1.1"
   id="Capa_1"
   x="0px"
   y="0px"
   width="30.667px"
   height="30.667px"
   viewBox="0 0 30.667 30.667"
   style="enable-background:new 0 0 30.667 30.667;"
   xml:space="preserve"
   sodipodi:docname="whatsappWhite.svg"
   inkscape:version="0.92.3 (2405546, 2018-03-11)"><metadata
   id="metadata41"><rdf:RDF><cc:Work
       rdf:about=""><dc:format>image/svg+xml</dc:format><dc:type
         rdf:resource="http://purl.org/dc/dcmitype/StillImage" /><dc:title></dc:title></cc:Work></rdf:RDF></metadata><defs
   id="defs39">
	
</defs><sodipodi:namedview
   pagecolor="#ffffff"
   bordercolor="#666666"
   borderopacity="1"
   objecttolerance="10"
   gridtolerance="10"
   guidetolerance="10"
   inkscape:pageopacity="0"
   inkscape:pageshadow="2"
   inkscape:window-width="1600"
   inkscape:window-height="847"
   id="namedview37"
   showgrid="false"
   inkscape:zoom="7.6955686"
   inkscape:cx="13.059464"
   inkscape:cy="15.3335"
   inkscape:window-x="1600"
   inkscape:window-y="25"
   inkscape:window-maximized="1"
   inkscape:current-layer="Capa_1" />
<path
   inkscape:connector-curvature="0"
   id="path2"
   d="m 30.667,14.939 c 0,8.25 -6.74,14.938 -15.056,14.938 -2.639,0 -5.118,-0.675 -7.276,-1.857 L 0,30.667 2.717,22.65 C 1.347,20.4 0.558,17.758 0.558,14.938 0.559,6.688 7.297,0 15.613,0 23.928,0.002 30.667,6.689 30.667,14.939 Z M 15.61,2.382 c -6.979,0 -12.656,5.634 -12.656,12.56 0,2.748 0.896,5.292 2.411,7.362 l -1.58,4.663 4.862,-1.545 c 2,1.312 4.393,2.076 6.963,2.076 6.979,0 12.658,-5.633 12.658,-12.559 C 28.27,8.016 22.59,2.382 15.61,2.382 Z m 7.604,15.998 c -0.094,-0.151 -0.34,-0.243 -0.708,-0.427 -0.367,-0.184 -2.184,-1.069 -2.521,-1.189 -0.34,-0.123 -0.586,-0.185 -0.832,0.182 -0.243,0.367 -0.951,1.191 -1.168,1.437 -0.215,0.245 -0.43,0.276 -0.799,0.095 -0.369,-0.186 -1.559,-0.57 -2.969,-1.817 -1.097,-0.972 -1.838,-2.169 -2.052,-2.536 -0.217,-0.366 -0.022,-0.564 0.161,-0.746 0.165,-0.165 0.369,-0.428 0.554,-0.643 0.185,-0.213 0.246,-0.364 0.369,-0.609 0.121,-0.245 0.06,-0.458 -0.031,-0.643 C 13.126,11.3 12.389,9.5 12.08,8.767 11.773,8.035 11.466,8.156 11.25,8.156 c -0.215,0 -0.461,-0.03 -0.707,-0.03 -0.246,0 -0.646,0.089 -0.983,0.456 -0.337,0.367 -1.291,1.252 -1.291,3.054 0,1.804 1.321,3.543 1.506,3.787 0.186,0.243 2.554,4.062 6.305,5.528 3.753,1.465 3.753,0.976 4.429,0.914 0.678,-0.062 2.184,-0.885 2.49,-1.739 0.308,-0.858 0.308,-1.593 0.215,-1.746 z"
   style="fill:#ffffff"
   inkscape:export-xdpi="78.260017"
   inkscape:export-ydpi="78.260017" />
<g
   id="g6">
</g>
<g
   id="g8">
</g>
<g
   id="g10"
   style="display:inline">
</g>
<g
   id="g12">
</g>
<g
   id="g14">
</g>
<g
   id="g16">
</g>
<g
   id="g18">
</g>
<g
   id="g20">
</g>
<g
   id="g22">
</g>
<g
   id="g24">
</g>
<g
   id="g26">
</g>
<g
   id="g28">
</g>
<g
   id="g30">
</g>
<g
   id="g32">
</g>
<g
   id="g34">
</g>
</svg>